<?xml version="1.0" encoding="UTF-8"?><svg id="_レイヤー_1" xmlns="http://www.w3.org/2000/svg" viewBox="0 0 139 110"><defs><style>.cls-1{fill:#fff;}</style></defs><path class="cls-1" d="M129.92,27.7c-2.68.41-4.92,2.11-6.46,4.57l-11.02-.1c-.09-.49-.34-.92-.69-1.24l2.29-3.73c2.85.27,5.52-.46,7.46-2.3,2.14-2.03,3-5.02,2.65-8.22-3.17-.52-6.2.17-8.35,2.2-2.12,2.01-2.98,4.96-2.65,8.12l-2.14,3.47c-.25-.09-.51-.15-.79-.15-1.25,0-2.26,1.01-2.26,2.26,0,.13.02.26.04.39l-12.32,4.73c-.4-.64-1.1-1.06-1.91-1.06-.04,0-.07,0-.11.01l-2.68-10.83c.79-.35,1.35-1.14,1.35-2.06,0-.17-.02-.34-.06-.5l7.87-3.42c.01.07.02.15.03.22,3.21.23,6.16-.74,8.11-2.96,1.95-2.22,2.52-5.27,1.88-8.43-3.21-.23-6.16.74-8.11,2.96-1.72,1.96-2.37,4.57-2.05,7.32l-8.09,3.51c-.35-.5-.91-.85-1.55-.93l-.19-4.77c2.48-1.44,4.24-3.6,4.75-6.24.56-2.9-.49-5.83-2.64-8.22-2.88,1.43-4.94,3.76-5.5,6.66-.55,2.85.47,5.73,2.54,8.1l.18,4.52c-.97.25-1.69,1.13-1.69,2.18,0,.37.1.72.26,1.03l-9.81,7.98c-.39-.32-.88-.52-1.43-.52-.26,0-.51.05-.75.14l-5.61-9.75c.47-.41.77-1.01.77-1.69,0-.59-.23-1.11-.59-1.52l3.73-4.94s.06.09.1.14c2.98-1.21,5.21-3.38,5.97-6.23.77-2.85-.06-5.85-2.03-8.39-2.98,1.21-5.21,3.38-5.97,6.23-.68,2.53-.1,5.17,1.41,7.51l-3.9,5.17c-.29-.14-.62-.23-.97-.23s-.67.09-.97.23l-3.89-5.16c1.52-2.34,2.1-4.99,1.42-7.52-.77-2.85-3-5.02-5.97-6.23-1.97,2.54-2.8,5.54-2.03,8.39.77,2.85,3,5.02,5.97,6.23.03-.04.06-.09.09-.13l3.72,4.93c-.37.4-.59.93-.59,1.52,0,.68.3,1.27.77,1.69l-5.61,9.75c-.23-.08-.48-.14-.75-.14-.54,0-1.04.2-1.43.52l-9.81-7.98c.16-.31.26-.66.26-1.03,0-1.05-.72-1.93-1.69-2.18l.18-4.5c2.09-2.37,3.11-5.26,2.56-8.12-.56-2.9-2.61-5.23-5.5-6.66-2.15,2.39-3.2,5.32-2.64,8.22.51,2.63,2.26,4.79,4.73,6.23l-.19,4.78c-.64.09-1.19.43-1.55.93l-8.07-3.51c.31-2.75-.33-5.37-2.05-7.33-1.95-2.22-4.9-3.19-8.11-2.96-.64,3.15-.07,6.21,1.88,8.43,1.95,2.22,4.9,3.19,8.11,2.96.01-.07.02-.14.03-.22l7.86,3.42c-.04.16-.06.33-.06.5,0,.92.55,1.71,1.35,2.06l-2.68,10.83s-.07-.01-.11-.01c-.81,0-1.51.43-1.91,1.06l-12.32-4.73c.02-.13.04-.26.04-.39,0-1.25-1.01-2.26-2.26-2.26-.28,0-.54.06-.79.15l-2.12-3.45c.33-3.17-.52-6.13-2.65-8.15-2.14-2.03-5.17-2.72-8.35-2.2-.35,3.2.5,6.19,2.65,8.22,1.94,1.84,4.61,2.57,7.45,2.31l2.29,3.73c-.35.32-.6.75-.69,1.24l-11.01.1c-1.54-2.46-3.78-4.16-6.46-4.57-2.92-.45-5.8.72-8.11,2.96,1.54,2.83,3.94,4.79,6.86,5.24,2.83.43,5.62-.66,7.89-2.76l10.83-.09c.21,1.03,1.12,1.81,2.21,1.81.81,0,1.51-.43,1.91-1.06l12.32,4.73c-.02.13-.04.26-.04.39,0,1.25,1.01,2.26,2.26,2.26.56,0,1.06-.21,1.45-.54l10.58,8.47c-.16.31-.27.66-.27,1.04,0,1.25,1.01,2.26,2.26,2.26.17,0,.33-.02.48-.05l5.43,12.57c-.59.41-.98,1.09-.98,1.86,0,1.25,1.01,2.26,2.26,2.26,0,0,.01,0,.02,0l2.68,13.2c-.82.34-1.39,1.14-1.39,2.08,0,1.1.79,2.01,1.83,2.21v15.54c-1.76.22-3.13,1.7-3.13,3.52,0,1.97,1.6,3.56,3.56,3.56s3.56-1.6,3.56-3.56c0-1.82-1.37-3.3-3.13-3.52v-15.54c1.04-.2,1.83-1.11,1.83-2.21,0-.94-.58-1.74-1.39-2.08l2.68-13.2s.01,0,.02,0c1.25,0,2.26-1.01,2.26-2.26,0-.77-.39-1.45-.98-1.86l5.43-12.57c.16.03.32.05.48.05,1.25,0,2.26-1.01,2.26-2.26,0-.38-.1-.73-.27-1.04l10.58-8.47c.39.33.9.54,1.45.54,1.25,0,2.26-1.01,2.26-2.26,0-.13-.02-.26-.04-.39l12.32-4.73c.4.64,1.1,1.06,1.91,1.06,1.09,0,2-.78,2.21-1.81l10.84.09c2.27,2.11,5.06,3.19,7.89,2.76,2.92-.45,5.33-2.41,6.86-5.24-2.31-2.24-5.19-3.4-8.11-2.96ZM92.83,36.86c-.77.36-1.31,1.13-1.31,2.04,0,.38.1.73.27,1.04l-10.58,8.47c-.39-.33-.89-.54-1.44-.54l-2.12-11.26c.85-.33,1.45-1.14,1.45-2.1,0-.39-.11-.75-.28-1.07l9.8-7.97c.39.34.9.55,1.46.55.02,0,.04,0,.07,0l2.68,10.85ZM68.27,23.07c.23.08.48.13.74.13s.51-.05.74-.13l5.61,9.76c-.47.41-.77,1.01-.77,1.68s.32,1.31.81,1.72l-5.72,10.6c-.21-.07-.44-.11-.67-.11s-.46.05-.67.11l-5.72-10.6c.49-.41.81-1.03.81-1.72s-.3-1.27-.77-1.68l5.61-9.76ZM47.87,26.01s.04,0,.07,0c.56,0,1.07-.21,1.46-.55l9.8,7.97c-.17.32-.28.68-.28,1.07,0,.96.6,1.77,1.45,2.1l-2.12,11.26c-.55,0-1.05.21-1.44.54l-10.58-8.47c.16-.31.27-.66.27-1.04,0-.91-.54-1.68-1.31-2.04l2.68-10.85ZM59.53,51.99c.59-.41.98-1.09.98-1.86,0-.95-.59-1.76-1.42-2.09l2.12-11.27c.23,0,.44-.05.65-.11l5.72,10.59c-.5.41-.83,1.03-.83,1.73,0,.94.58,1.75,1.4,2.09l-2.69,13.45s0,0-.01,0c-.17,0-.33.02-.48.05l-5.43-12.57ZM69.03,82.04s-.01,0-.02,0-.01,0-.02,0l-2.68-13.2c.82-.34,1.39-1.14,1.39-2.08s-.58-1.75-1.4-2.09l2.69-13.45s0,0,.01,0,0,0,.01,0l2.69,13.45c-.82.34-1.4,1.14-1.4,2.09s.58,1.74,1.39,2.08l-2.68,13.2ZM73.05,64.56c-.16-.03-.32-.05-.48-.05,0,0,0,0-.01,0l-2.69-13.45c.82-.34,1.4-1.14,1.4-2.09,0-.7-.33-1.32-.83-1.73l5.72-10.59c.21.07.42.11.65.11l2.12,11.27c-.83.33-1.42,1.14-1.42,2.09,0,.77.39,1.45.98,1.86l-5.43,12.57Z"/></svg>