<?xml version="1.0" encoding="UTF-8"?><svg id="_レイヤー_1" xmlns="http://www.w3.org/2000/svg" viewBox="0 0 200 120"><defs><style>.cls-1{fill:#51bd8b;}.cls-2{fill:#2c9877;}.cls-3{fill:#cb4242;}.cls-4{fill:#316666;}.cls-5{fill:#33b2ff;}.cls-6{fill:#ff8c00;}.cls-7{fill:#237800;}.cls-8{fill:#80c445;}.cls-9{fill:#1a4f00;}.cls-10{fill:#d1b900;}.cls-11{fill:#215c00;}.cls-12{fill:#916200;}.cls-13{fill:#0f3300;}.cls-14{fill:#ff4a00;}.cls-15{fill:#698eff;}.cls-16{fill:#8c6565;}.cls-17{fill:#0f3300;}.cls-18{fill:#e553a3;}.cls-19{fill:#aa76cc;}.cls-20{fill:#6ea000;}.cls-21{fill:#317385;}.cls-22{fill:#5c67b3;}.cls-23{fill:#164a00;}.cls-24{fill:#226132;}.cls-25{fill:#497ecc;}.cls-26{fill:#ff4a4a;}</style></defs><path class="cls-13" d="M17.98,93.67c-.21.12-.99.49-1.27.7-.12.08-.25.45-.17.62.41.99,3.86,6.53,6.37,9.33,1.11,1.31,2.22,2.05,4.03,2.42.33.08.66.41.66.58,0,.25-.33.41-.58.53-.49.21-1.4.29-2.26.29-1.93,0-4.27-1.15-5.46-2.67-1.44-1.97-3.53-5.13-5.18-7.72-.58-.86-1.4-1.89-1.64-2.05-.16-.17-1.68-.53-2.92-.53-.29,0-.49.37-.49.49-.04.7.04,5.92.16,8.3.08,1.73.53,2.3,2.46,2.75.7.21.99.49.99.7,0,.41-.78.53-.99.53-1.73,0-2.51-.25-5.3-.25-.74,0-2.87.16-3.33.16-.53,0-1.07-.16-1.07-.58,0-.33.37-.41.9-.62,1.81-.58,2.55-.82,2.67-2.38.08-1.27.25-5.63.25-8.09,0-6.33-.08-10.06-.25-11.67-.17-1.52-.53-1.6-2.38-2.05-.62-.16-.99-.37-.99-.7,0-.29.21-.49,1.11-.49h2.3c1.52,0,4.44-.21,6.65-.21,2.83,0,5.05.37,6.7,1.73,1.36,1.11,2.34,3.16,2.34,5.13,0,2.22-1.31,4.52-3.33,5.75ZM15.8,83.9c-.99-.95-2.75-1.56-4.07-1.56-.21,0-1.52.08-1.97.29-.21.08-.49.7-.49.86-.12,1.44-.25,9.37-.12,10.06.08.33.41.62.66.62,2.38,0,4.56-.7,5.13-1.07,1.11-.7,2.71-2.51,2.71-5.09,0-.99-.66-2.92-1.85-4.11Z"/><path class="cls-13" d="M54.16,84.88c2.22,2.14,3.74,5.83,3.74,9.08,0,5.96-3.7,10.27-6.57,11.87-2.42,1.4-5.83,2.3-9.78,2.3-1.68,0-5.34-.12-8.05-.33-.78-.04-1.52-.04-2.18-.04-.95,0-1.31-.29-1.31-.62s.41-.53.9-.58c2.83-.33,3.04-1.11,3.16-4.35.08-1.93.12-3.2.12-5.63s-.08-7.19-.21-10.56c-.08-2.63-.12-3.2-2.63-3.57-.45-.08-.95-.37-.95-.66,0-.33.37-.53.99-.53h1.15c2.05,0,6.7-.37,10.23-.37,5.75,0,9.74,2.46,11.38,3.98ZM38.14,82.5c-.29.21-.37.29-.41.53-.08.49-.16,4.15-.16,7.8v5.96c0,2.88.04,5.3.16,7.11.12,1.27.78,1.85.9,1.93.78.58,2.46,1.07,3.37,1.07,1.89,0,5.38-.74,7.68-2.67,2.46-2.1,4.23-5.67,4.23-10.27,0-3.53-1.77-7.39-4.4-9.37-2.05-1.52-5.5-2.42-8.54-2.42-1.48,0-2.46.12-2.83.33Z"/><path class="cls-13" d="M74.98,81.27c2.46,0,6.24-.12,6.57-.12.21-.04.49.17.49.41-.08,1.19.08,2.63.12,4.03.04.53-.21,1.11-.58,1.11-.33,0-.66-.45-.9-1.27-.66-2.01-1.11-2.38-2.46-2.59-1.4-.21-5.5-.16-6.37-.08-.41.04-.66.41-.66.53-.08.99-.16,6.37-.16,9.08,0,1.11.21,1.52.41,1.52,1.6,0,4.93.04,5.92-.04,1.27-.12,1.64-.49,2.22-1.89.25-.58.41-.99.78-.99.29,0,.37.41.37.9,0,.53-.21,1.85-.21,2.59,0,1.97.08,2.34.08,3.25,0,.45-.21.94-.62.94-.21,0-.45-.29-.62-.86-.41-1.56-.9-1.77-1.68-1.97-.45-.08-1.93-.21-2.75-.21s-2.75,0-3.61.12c-.12,0-.29.33-.33.49-.04.78.12,6.53.16,7.72.04,1.27.12,2.09,2.79,2.59.62.12.99.41.99.78,0,.25-.37.49-1.15.49-1.07,0-2.34-.12-3.9-.12-1.64,0-4.03.25-4.89.25s-1.15-.16-1.15-.41c0-.33.45-.66,1.11-.82,2.22-.53,2.3-1.48,2.34-2.01.12-1.27.33-4.31.33-12.45,0-3.86,0-6.28-.08-7.35-.08-1.4-.78-2.09-2.59-2.55-.82-.21-1.03-.41-1.03-.7,0-.33.49-.49,1.15-.49,1.81,0,3.29.12,4.56.12h5.34Z"/><path class="cls-13" d="M122.46,93.47c.99,1.11,1.93,3.12,1.93,5.38,0,2.05-.86,5.09-3.49,7.07-2.26,1.77-4.68,2.09-6.53,2.09-.95,0-1.77-.08-2.3-.16-.12,0-.29.33-.29.53,0,3.98.04,5.67.16,6.82.12,1.07.41,1.56,1.97,2.05.82.25,1.15.45,1.15.74,0,.33-.53.53-1.07.53-.9,0-3.29-.21-4.89-.21-.99,0-1.4.12-2.63.12-.62,0-1.23-.16-1.23-.53,0-.16.29-.49.94-.62,2.18-.45,2.38-.82,2.55-3.78.08-1.36.12-4.72.12-8.91,0-2.79.04-5.87,0-8.3,0-1.72-.21-2.01-.33-2.09-1.03-.74-1.52-1.11-1.52-1.31s.41-.7.57-.74c.62-.16,2.42-1.03,3.12-1.44.41-.21.74-.37.82-.37.12,0,.45.33.45.49-.08.66-.08,1.44-.12,2.09,0,.17.16.33.33.21.99-.66,2.1-1.23,2.67-1.48.66-.29,1.89-.49,3.04-.49,1.48,0,3.33.94,4.56,2.3ZM112.44,94c-.21.16-.41.49-.53,1.23-.21,1.23-.25,5.71-.08,7.39.08.74.25,1.44.53,1.81,1.11,1.56,3.08,2.26,4.11,2.26.45,0,1.31-.21,1.89-.7,2.05-1.72,2.79-4.85,2.79-6.04,0-.9,0-3.16-1.68-5.01-1.07-1.11-2.75-1.68-3.7-1.68-1.73,0-2.87.37-3.33.74Z"/><path class="cls-13" d="M144.19,99.47c0,3.41-2.05,6.08-3.57,7.07-1.64,1.19-3.25,1.64-5.09,1.64s-3.94-.86-5.46-2.14c-1.77-1.44-3.04-4.23-3.04-6.28,0-3.12,1.31-5.09,2.87-6.41,1.27-1.11,3.33-2.26,6.08-2.26,4.07,0,8.21,3.2,8.21,8.38ZM132.52,93.51c-1.07.99-2.01,3.12-2.01,5.26,0,1.36.17,2.63.49,3.66,1.03,3.08,3.37,4.56,5.34,4.56.45,0,1.36-.21,2.51-1.36,1.03-1.11,1.85-3.66,1.85-5.42,0-2.14-.49-4.48-2.05-6.28-.9-.99-2.38-1.6-3.45-1.6-.86,0-1.81.45-2.67,1.19Z"/><path class="cls-13" d="M148.13,92.52c1.36-.45,2.63-1.07,3.04-1.31.49-.33.7-.49.82-.49.16,0,.37.37.37.49,0,.74-.08,1.48-.08,2.26,0,.16.21.21.29.16,1.6-1.52,3.41-2.55,4.68-2.55,1.68,0,2.05,1.03,2.05,1.4,0,.08-.12.37-.25.58-.45.66-1.44,1.77-1.68,1.89-.08.04-.45-.04-.58-.12-.45-.41-1.44-.9-2.26-.9-.7,0-1.4.12-1.81.58-.29.33-.41.7-.41.9,0,.82.21,8.26.25,8.87.08,1.19.33,1.97,1.07,2.09.53.12,1.27.33,1.89.49.66.21.74.49.74.66,0,.21-.37.37-.99.37-1.03,0-2.46-.21-4.85-.21-1.23,0-1.73.16-2.71.16-.45,0-.86-.16-.86-.49,0-.25.49-.41.82-.53,1.6-.53,1.73-.94,1.77-3.41v-7.85c0-.41,0-.94-.45-1.23-.99-.78-1.4-.94-1.4-1.11,0-.12.08-.53.53-.7Z"/><path class="cls-13" d="M171.25,91.5s.45.21.45.33c0-.12.12,1.03.12,1.56,0,.37-.78.45-1.07.45h-4.48c-.21,0-.37.21-.37.29-.04.82-.08,6.86-.08,8.83,0,1.03.25,1.56.7,2.01.78.7,1.64.78,2.51.78.53,0,1.4-.25,2.01-.62.37-.21.45-.25.62-.25.04,0,.25.08.25.45,0,.33-.29.74-.58,1.03-1.11,1.07-2.55,1.81-4.4,1.81-1.68,0-3.12-1.03-3.61-1.93-.45-.7-.53-1.56-.53-2.71,0-1.52.16-7.68.16-9.12,0-.29-.74-.58-1.56-.82-.33-.12-.58-.33-.58-.45,0-.17.12-.33.25-.45,1.44-1.15,2.71-2.14,3.29-2.83.49-.58.78-.9.95-.9.21,0,.58.37.58.45v1.93c0,.12.16.33.33.33.9,0,4.89-.16,5.05-.16Z"/><path class="cls-13" d="M184.93,93.02c.62.86.82,1.68.82,3.41,0,1.6-.16,6.78-.16,7.23,0,1.89,1.31,2.05,1.64,2.05.16,0,1.11-.29,1.56-.62.12-.08.16,0,.25.12.12.12.12.37.12.41,0,.78-1.85,2.55-3.7,2.55-.94,0-2.14-.53-2.63-2.05,0-.04-.16-.21-.25-.16-1.52,1.07-3.29,1.77-3.7,1.89-.45.16-1.44.25-1.64.25-1.44,0-2.83-1.77-2.83-3.82,0-.74.33-1.52.78-2.1.41-.53,1.03-.74,1.64-1.03.62-.25,3.9-1.15,4.81-1.44.94-.29,1.19-.49,1.19-.74.04-.37.08-2.88.08-3.37,0-1.03-1.19-2.75-3.2-2.75-.86,0-1.4.25-1.68.45-.25.12-.37.86-.29,1.68,0,.12-.17.37-.25.45-.41.33-2.46,1.36-2.67,1.36-.25,0-.49-.33-.49-.53,0-1.19,1.15-2.34,3.08-3.61,1.19-.86,3.04-1.56,3.82-1.56,2.05,0,3.08,1.03,3.7,1.93ZM182.22,105.26c.25-.16.49-.94.49-1.03.08-.99.08-2.38.08-3.2,0-.12-.16-.33-.33-.33-1.15,0-3.12.7-4.23,1.23-.41.29-.82.58-.82,1.56,0,1.81,1.73,2.46,2.59,2.46.62,0,1.44-.29,2.22-.7Z"/><path class="cls-13" d="M191.25,80c1.89-.66,3.12-.9,4.23-1.6.12-.08.37.25.37.41-.12,1.03-.37,5.67-.37,11.17,0,6-.08,13.84.12,14.95.16.82.33,1.31,2.09,1.81.62.17.95.37.95.62,0,.29-.58.45-1.07.45-.99,0-2.75-.12-3.49-.12-.95,0-2.75.12-3.62.12s-1.15-.12-1.15-.45c0-.29.45-.49.9-.58,1.89-.41,1.97-1.15,2.09-3.2.08-1.56.29-6,.29-12.49,0-3.04-.12-7.35-.12-8.59,0-.33-.04-.57-.99-1.15-.7-.49-.82-.62-.82-.78s.12-.45.57-.58Z"/><rect class="cls-17" x="92.9" y="68.58" width=".86" height="17.9" transform="translate(-13.57 20.13) rotate(-11.48)"/><rect x="94.68" y="86.3" width=".86" height="21.27"/><rect class="cls-17" x="92.9" y="68.58" width=".86" height="17.9" transform="translate(-13.57 20.13) rotate(-11.48)"/><rect class="cls-17" x="87.95" y="77.1" width="17.9" height=".86" transform="translate(1.62 157.04) rotate(-78.51)"/><rect class="cls-17" x="87.95" y="77.1" width="17.9" height=".86" transform="translate(1.62 157.04) rotate(-78.51)"/><polygon class="cls-9" points="91.7 70.2 83.97 52.3 84.76 51.96 91.4 67.32 94.69 50.89 95.54 51.06 91.7 70.2"/><polygon class="cls-23" points="98.52 70.2 94.69 51.06 95.54 50.89 98.83 67.32 105.47 51.96 106.26 52.3 98.52 70.2"/><polygon class="cls-11" points="84.65 52.91 70.07 41.24 70.61 40.57 84.07 51.34 86.88 36.43 87.73 36.59 84.65 52.91"/><polygon class="cls-7" points="87.42 37.16 73.81 26.1 74.36 25.43 87.18 35.85 94.74 22.7 95.49 23.13 87.42 37.16"/><polygon class="cls-12" points="70.64 41.48 53.74 34.99 54.05 34.19 70.04 40.32 73.67 25.66 74.5 25.87 70.64 41.48"/><polygon class="cls-20" points="74.49 26.41 61.12 20.6 61.47 19.81 73.68 25.12 74.05 15.88 74.91 15.91 74.49 26.41"/><polygon class="cls-14" points="37.78 35.16 37.77 34.3 53.13 34.17 48.57 26.75 49.3 26.3 54.67 35.02 37.78 35.16"/><polygon class="cls-24" points="95.11 51.89 86.92 36.71 87.68 36.3 95.11 50.07 102.54 36.3 103.3 36.71 95.11 51.89"/><polygon class="cls-4" points="105.57 52.91 102.5 36.59 103.35 36.43 106.15 51.34 119.62 40.57 120.15 41.24 105.57 52.91"/><polygon class="cls-2" points="95.11 23.63 87.83 13.98 88.52 13.46 95.11 22.2 101.7 13.46 102.39 13.98 95.11 23.63"/><polygon class="cls-21" points="102.8 37.16 94.74 23.13 95.49 22.7 103.04 35.85 115.87 25.43 116.41 26.1 102.8 37.16"/><polygon class="cls-16" points="119.58 41.48 115.72 25.87 116.56 25.66 120.19 40.32 136.17 34.19 136.48 34.99 119.58 41.48"/><polygon class="cls-22" points="115.74 26.41 115.32 15.91 116.18 15.88 116.55 25.12 128.76 19.81 129.1 20.6 115.74 26.41"/><polygon class="cls-3" points="152.44 35.16 135.56 35.02 140.92 26.3 141.66 26.75 137.09 34.17 152.45 34.3 152.44 35.16"/><circle class="cls-25" cx="95.11" cy="86.3" r="2.26"/><circle class="cls-17" cx="95.11" cy="86.3" r="2.26"/><circle class="cls-25" cx="95.11" cy="107.57" r="3.56"/><circle cx="95.11" cy="107.57" r="3.56"/><circle class="cls-25" cx="91.55" cy="68.76" r="2.26"/><circle class="cls-9" cx="91.55" cy="68.76" r="2.26"/><circle class="cls-25" cx="98.68" cy="68.76" r="2.26"/><circle class="cls-23" cx="98.68" cy="68.76" r="2.26"/><path class="cls-1" d="M83.67,10.39c.77,2.85,3,5.02,5.97,6.23,1.97-2.54,2.8-5.54,2.03-8.39s-3-5.02-5.97-6.23c-1.97,2.54-2.8,5.54-2.03,8.39Z"/><path class="cls-8" d="M69.2,12.53c.56,2.9,2.61,5.23,5.5,6.66,2.15-2.39,3.2-5.32,2.64-8.22s-2.61-5.23-5.5-6.66c-2.15,2.39-3.2,5.32-2.64,8.22Z"/><path class="cls-10" d="M55.84,19.11c1.95,2.22,4.9,3.19,8.11,2.96.64-3.15.07-6.21-1.88-8.43s-4.9-3.19-8.11-2.96c-.64,3.15-.07,6.21,1.88,8.43Z"/><path class="cls-6" d="M42.63,26.91c2.14,2.03,5.17,2.72,8.35,2.2.35-3.2-.5-6.19-2.65-8.22s-5.17-2.72-8.35-2.2c-.35,3.2.5,6.19,2.65,8.22Z"/><path class="cls-26" d="M32.97,37.9c2.92.45,5.8-.72,8.11-2.96-1.54-2.83-3.94-4.79-6.86-5.24-2.92-.45-5.8.72-8.11,2.96,1.54,2.83,3.94,4.79,6.86,5.24Z"/><path class="cls-5" d="M106.58,10.39c-.77,2.85-3,5.02-5.97,6.23-1.97-2.54-2.8-5.54-2.03-8.39s3-5.02,5.97-6.23c1.97,2.54,2.8,5.54,2.03,8.39Z"/><path class="cls-15" d="M121.04,12.53c-.56,2.9-2.61,5.23-5.5,6.66-2.15-2.39-3.2-5.32-2.64-8.22s2.61-5.23,5.5-6.66c2.15,2.39,3.2,5.32,2.64,8.22Z"/><path class="cls-19" d="M134.4,19.11c-1.95,2.22-4.9,3.19-8.11,2.96-.64-3.15-.07-6.21,1.88-8.43s4.9-3.19,8.11-2.96c.64,3.15.07,6.21-1.88,8.43Z"/><path class="cls-18" d="M147.61,26.91c-2.14,2.03-5.17,2.72-8.35,2.2-.35-3.2.5-6.19,2.65-8.22s5.17-2.72,8.35-2.2c.35,3.2-.5,6.19-2.65,8.22Z"/><path class="cls-26" d="M157.27,37.9c-2.92.45-5.8-.72-8.11-2.96,1.54-2.83,3.94-4.79,6.86-5.24s5.8.72,8.11,2.96c-1.54,2.83-3.94,4.79-6.86,5.24Z"/><circle class="cls-25" cx="53.9" cy="34.59" r="2.26"/><circle class="cls-14" cx="53.9" cy="34.59" r="2.26"/><circle class="cls-25" cx="74.04" cy="25.76" r="2.26"/><circle class="cls-20" cx="74.04" cy="25.76" r="2.26"/><circle class="cls-25" cx="70.34" cy="40.9" r="2.26"/><circle class="cls-12" cx="70.34" cy="40.9" r="2.26"/><circle class="cls-25" cx="87.28" cy="36.51" r="2.26"/><circle class="cls-7" cx="87.28" cy="36.51" r="2.26"/><circle class="cls-25" cx="84.36" cy="52.13" r="2.26"/><circle class="cls-11" cx="84.36" cy="52.13" r="2.26"/><circle class="cls-25" cx="136.33" cy="34.59" r="2.26"/><circle class="cls-3" cx="136.33" cy="34.59" r="2.26"/><circle class="cls-25" cx="116.19" cy="25.76" r="2.26"/><circle class="cls-22" cx="116.19" cy="25.76" r="2.26"/><circle class="cls-25" cx="119.89" cy="40.9" r="2.26"/><circle class="cls-16" cx="119.89" cy="40.9" r="2.26"/><circle class="cls-25" cx="102.95" cy="36.51" r="2.26"/><circle class="cls-21" cx="102.95" cy="36.51" r="2.26"/><circle class="cls-25" cx="105.86" cy="52.13" r="2.26"/><circle class="cls-4" cx="105.86" cy="52.13" r="2.26"/><circle class="cls-25" cx="95.11" cy="22.95" r="2.26"/><circle class="cls-2" cx="95.11" cy="22.95" r="2.26"/><circle class="cls-25" cx="95.11" cy="50.97" r="2.26"/><circle class="cls-24" cx="95.11" cy="50.97" r="2.26"/></svg>