<?xml version="1.0" encoding="UTF-8"?>
<svg id="_layer_1" xmlns="http://www.w3.org/2000/svg" xmlns:xlink="http://www.w3.org/1999/xlink" viewBox="0 0 472 476">
  <defs>
    <style>
      .cls-1{
        fill: none;
      }
      .cls-2{
        fill: url(#_gradation_43-2);
      }
      .cls-3{
        fill: url(#_gradation_65-2);
      }
      .cls-4{
        fill: url(#_gradation_26-2);
      }
      .cls-5{
        fill: url(#_gradation_1815);
      }
      .cls-6{
        fill: url(#_gradation_1555);
      }
      .cls-7{
        fill: url(#_gradation_1287);
      }
      .cls-8{
        fill: url(#_gradation_1273);
      }
      .cls-9{
        fill: url(#_gradation_1022);
      }
      .cls-10{
        fill: url(#_gradation_86-2);
      }
      .cls-11{
        fill: url(#_gradation_140-2);
      }
      .cls-12{
        fill: url(#_gradation_121-2);
      }
      .cls-13{
        fill: url(#_gradation_121-3);
      }
      .cls-14{
        fill: url(#_gradation_177-2);
      }
      .cls-15{
        fill: url(#_gradation_811);
      }
      .cls-16{
        fill: url(#_gradation_672);
      }
      .cls-17{
        fill: url(#_gradation_533);
      }
      .cls-18{
        fill: url(#_gradation_385);
      }
      .cls-19{
        fill: url(#_gradation_140);
      }
      .cls-20{
        fill: url(#_gradation_106);
      }
      .cls-21{
        fill: url(#_gradation_121);
      }
      .cls-22{
        fill: url(#_gradation_158);
      }
      .cls-23{
        fill: url(#_gradation_177);
      }
      .cls-24{
        fill: url(#_gradation_452);
      }
      .cls-25{
        fill: url(#_gradation_65);
      }
      .cls-26{
        fill: url(#_gradation_43);
      }
      .cls-27{
        fill: url(#_gradation_26);
      }
      .cls-28{
        fill: url(#_gradation_86);
      }
    </style>
    <linearGradient id="_gradation_121" x1="284.58" y1="313.73" x2="207.59" y2="476.26" gradientUnits="userSpaceOnUse">
      <stop offset="0" stop-color="#66b3ff"/>
      <stop offset="1" stop-color="#33b2ff"/>
    </linearGradient>
    <linearGradient id="_gradation_140" x1="227.54" y1="327.74" x2="61.44" y2="396.18" gradientUnits="userSpaceOnUse">
      <stop offset="0" stop-color="#9af"/>
      <stop offset="1" stop-color="#698eff"/>
    </linearGradient>
    <linearGradient id="_gradation_121-2" x1="996" y1="365.08" x2="1092" y2="364.84" xlink:href="#_gradation_121"/>
    <linearGradient id="_gradation_1273" x1="225.88" y1="321.87" x2="175.27" y2="408.84" gradientUnits="userSpaceOnUse">
      <stop offset="0" stop-color="#37f"/>
      <stop offset="1" stop-color="#0e70f7"/>
    </linearGradient>
    <linearGradient id="_gradation_1287" x1="174.22" y1="296.04" x2=".99" y2="244.72" gradientUnits="userSpaceOnUse">
      <stop offset="0" stop-color="#cea1e6"/>
      <stop offset="1" stop-color="#aa76cc"/>
    </linearGradient>
    <linearGradient id="_gradation_140-2" x1="995.86" y1="307.87" x2="1091.87" y2="307.63" xlink:href="#_gradation_140"/>
    <linearGradient id="_gradation_1555" x1="174.94" y1="292.27" x2="76.56" y2="327.92" gradientUnits="userSpaceOnUse">
      <stop offset="0" stop-color="#7566de"/>
      <stop offset="1" stop-color="#5252de"/>
    </linearGradient>
    <linearGradient id="_gradation_177" x1="150.61" y1="240.18" x2="54.38" y2="89.77" gradientUnits="userSpaceOnUse">
      <stop offset="0" stop-color="#e673ac"/>
      <stop offset="1" stop-color="#e553a3"/>
    </linearGradient>
    <linearGradient id="_gradation_158" x1="995.63" y1="216.79" x2="1091.63" y2="216.56" gradientUnits="userSpaceOnUse">
      <stop offset="0" stop-color="#aa76cc"/>
      <stop offset=".03" stop-color="#cea1e6"/>
      <stop offset="1" stop-color="#aa76cc"/>
    </linearGradient>
    <linearGradient id="_gradation_1815" x1="154.04" y1="236.76" x2="58.04" y2="201.11" gradientUnits="userSpaceOnUse">
      <stop offset="0" stop-color="#b3469f"/>
      <stop offset="1" stop-color="#a3318e"/>
    </linearGradient>
    <linearGradient id="_gradation_26" x1="168.97" y1="180.18" x2="193.93" y2="1.97" gradientUnits="userSpaceOnUse">
      <stop offset="0" stop-color="#ff7f66"/>
      <stop offset="1" stop-color="#ff4a4a"/>
    </linearGradient>
    <linearGradient id="_gradation_177-2" x1="995.43" y1="134.5" x2="1091.43" y2="134.27" xlink:href="#_gradation_177"/>
      <linearGradient id="_gradation_385" x1="995.43" y1="134.5" x2="1091.43" y2="134.27" gradientUnits="userSpaceOnUse">
      <stop offset="0" stop-color="#e6372e"/>
      <stop offset="1" stop-color="#e61c1c"/>
    </linearGradient>
    <linearGradient id="_gradation_43" x1="225.75" y1="148.8" x2="354.07" y2="26.19" gradientUnits="userSpaceOnUse">
      <stop offset="0" stop-color="#fb3"/>
      <stop offset="1" stop-color="#ff8c00"/>
    </linearGradient>
    <linearGradient id="_gradation_26-2" x1="995.34" y1="99.47" x2="1091.34" y2="99.23" xlink:href="#_gradation_26"/>
      <linearGradient id="_gradation_452" x1="995.34" y1="99.47" x2="1091.34" y2="99.23" gradientUnits="userSpaceOnUse">
      <stop offset="0" stop-color="#ff5e0d"/>
      <stop offset="1" stop-color="#ff3912"/>
    </linearGradient>
    <linearGradient id="_gradation_65" x1="287.26" y1="157.8" x2="463.34" y2="149.24" gradientUnits="userSpaceOnUse">
      <stop offset="0" stop-color="#e6e62e"/>
      <stop offset="1" stop-color="#d1b900"/>
    </linearGradient>
    <linearGradient id="_gradation_43-2" x1="995.41" y1="128.1" x2="1091.41" y2="127.86" xlink:href="#_gradation_43"/>
      <linearGradient id="_gradation_533" x1="995.41" y1="128.1" x2="1091.41" y2="127.86" gradientUnits="userSpaceOnUse">
      <stop offset="0" stop-color="#e39c32"/>
      <stop offset="1" stop-color="#d68000"/>
    </linearGradient>
    <linearGradient id="_gradation_86" x1="326.72" y1="205.23" x2="470.01" y2="314.3" gradientUnits="userSpaceOnUse">
      <stop offset="0" stop-color="#9ae673"/>
      <stop offset="1" stop-color="#80c445"/>
    </linearGradient>
    <linearGradient id="_gradation_65-2" x1="995.61" y1="207" x2="1091.61" y2="206.76" xlink:href="#_gradation_65"/>
      <linearGradient id="_gradation_672" x1="323.18" y1="207.82" x2="424.41" y2="209.24" gradientUnits="userSpaceOnUse">
      <stop offset="0" stop-color="#84c93e"/>
      <stop offset="1" stop-color="#78a314"/>
    </linearGradient>
    <linearGradient id="_gradation_106" x1="326.93" y1="270.06" x2="367.56" y2="443.29" gradientUnits="userSpaceOnUse">
      <stop offset="0" stop-color="#7accb1"/>
      <stop offset="1" stop-color="#51bd8b"/>
    </linearGradient>
    <linearGradient id="_gradation_121-3" x1="995.99" y1="361.67" x2="1091.99" y2="361.43" xlink:href="#_gradation_121"/>
      <linearGradient id="_gradation_1022" x1="283" y1="311.8" x2="302.01" y2="413.5" gradientUnits="userSpaceOnUse">
      <stop offset="0" stop-color="#218d9c"/>
      <stop offset="1" stop-color="#15888c"/>
    </linearGradient>
    <linearGradient id="_gradation_86-2" x1="995.84" y1="299.24" x2="1091.84" y2="299" xlink:href="#_gradation_86"/>
    <linearGradient id="_gradation_811" x1="323.77" y1="269.29" x2="400.76" y2="333.44" gradientUnits="userSpaceOnUse">
      <stop offset="0" stop-color="#3bb52f"/>
      <stop offset="1" stop-color="#349e19"/>
    </linearGradient>
  </defs>
  <path class="cls-1" d="M284.74,164.31c.2-.62.41-1.23.62-1.85-19.57,2.89-39.8-.17-57.8-9.09-.25-.6-.47-1.21-.71-1.81-13.13,14.79-30.6,25.45-50.12,30.19-.58-.3-1.14-.62-1.71-.93-.56,19.77-7.08,39.16-18.99,55.34-.63.14-1.27.26-1.91.38,12.28,15.5,19.75,34.55,21.03,54.6-.4.52-.81,1.01-1.21,1.52,19.37,3.98,37.34,13.77,51.2,28.31.03.65.03,1.3.05,1.95,17.4-9.4,37.46-13.45,57.42-11.22.44.48.86.97,1.29,1.46,7.28-18.39,20.05-34.38,36.77-45.51.65.09,1.28.19,1.93.29-6.24-18.77-6.74-39.22-1.08-58.5.55-.35,1.11-.68,1.66-1.01-16.84-10.37-30.38-25.71-38.43-44.12Z"/>
  <path class="cls-21" d="M283.89,313.16c-.43-.49-.85-.98-1.29-1.46-19.97-2.23-40.02,1.82-57.42,11.22.84,35.92-18.29,70.49-51.17,88.25.58,23.48,9.61,46.24,25.64,63.75,39.32,4.39,79.02-15.52,98.01-52.88,1.4-2.76,2.65-5.56,3.76-8.38-10.36-11.75-18.05-26.17-21.84-42.5-4.66-20.09-2.75-40.17,4.31-58Z"/>
  <path class="cls-19" d="M184.6,364.58c9.35-18.39,23.72-32.54,40.58-41.65-.02-.65-.02-1.3-.05-1.95-13.86-14.54-31.83-24.33-51.2-28.31-22.45,28.05-59.32,42.24-95.93,34.71-14.65,18.35-22.36,41.6-21.33,65.31,27.3,28.64,70.51,38.9,109.07,22.49,2.85-1.21,5.6-2.56,8.27-4-.38-15.66,2.99-31.65,10.59-46.6Z"/>
  <path class="cls-12" d="M225.18,322.93c-16.87,9.12-31.24,23.27-40.58,41.65-7.6,14.95-10.97,30.93-10.59,46.6,32.88-17.76,52.01-52.33,51.17-88.25Z"/>
  <path class="cls-8" d="M225.18,322.93c-16.87,9.12-31.24,23.27-40.58,41.65-7.6,14.95-10.97,30.93-10.59,46.6,32.88-17.76,52.01-52.33,51.17-88.25Z"/>
  <path class="cls-7" d="M116.07,298.49c18.98-8.08,39.08-9.68,57.86-5.82.41-.51.82-1.01,1.21-1.52-1.27-20.05-8.74-39.1-21.03-54.6-35.23,7.06-72.59-5.78-95.8-35.07-23.02,4.64-43.87,17.49-58.33,36.32,2.51,39.49,29.01,75.13,69.09,87.34,2.96.9,5.93,1.64,8.91,2.25,9.78-12.25,22.63-22.32,38.06-28.89Z"/>
  <path class="cls-11" d="M173.93,292.67c-18.78-3.86-38.89-2.26-57.86,5.82-15.43,6.57-28.29,16.64-38.06,28.89,36.61,7.53,73.48-6.66,95.93-34.71Z"/>
  <path class="cls-6" d="M173.93,292.67c-18.78-3.86-38.89-2.26-57.86,5.82-15.43,6.57-28.29,16.64-38.06,28.89,36.61,7.53,73.48-6.66,95.93-34.71Z"/>
  <path class="cls-23" d="M106.05,203.81c19.73,6.01,36.16,17.71,48.07,32.73.64-.13,1.27-.24,1.91-.38,11.91-16.18,18.44-35.57,18.99-55.34-31.52-17.23-51.9-51.09-50.84-88.44-20.62-11.24-44.85-14.8-68.02-9.67-23.46,31.86-26.07,76.2-3.21,111.32,1.69,2.6,3.49,5.07,5.38,7.45,15.36-3.1,31.68-2.55,47.73,2.34Z"/>
  <path class="cls-22" d="M154.12,236.54c-11.91-15.03-28.34-26.72-48.07-32.73-16.04-4.89-32.37-5.44-47.73-2.34,23.2,29.3,60.57,42.13,95.8,35.07Z"/>
  <path class="cls-5" d="M154.12,236.54c-11.91-15.03-28.34-26.72-48.07-32.73-16.04-4.89-32.37-5.44-47.73-2.34,23.2,29.3,60.57,42.13,95.8,35.07Z"/>
  <path class="cls-27" d="M159.24,124.84c11.25,17.29,16.32,36.81,15.78,55.97.57.31,1.13.63,1.71.93,19.52-4.74,36.99-15.4,50.12-30.19-13.07-33.46-6.92-72.49,17.9-100.43-8.57-21.87-24.85-40.17-45.89-51.13-38.45,9.33-68.95,41.62-74.01,83.21-.37,3.07-.58,6.13-.67,9.17,13.76,7.5,25.91,18.41,35.06,32.47Z"/>
  <path class="cls-14" d="M175.02,180.82c.54-19.17-4.53-38.69-15.78-55.97-9.15-14.05-21.3-24.97-35.06-32.47-1.06,37.36,19.32,71.21,50.84,88.44Z"/>
  <path class="cls-18" d="M175.02,180.82c.54-19.17-4.53-38.69-15.78-55.97-9.15-14.05-21.3-24.97-35.06-32.47-1.06,37.36,19.32,71.21,50.84,88.44Z"/>
  <path class="cls-26" d="M250.74,98.54c-2.49,20.48-11.16,38.69-23.89,53.02.24.6.46,1.21.71,1.81,18,8.92,38.23,11.98,57.8,9.09,11.5-34.04,41.3-59.98,78.27-65.43,7.49-22.26,6.79-46.74-2.29-68.67-35.45-17.57-79.57-12.44-110.18,16.17-2.26,2.11-4.39,4.32-6.4,6.59,5.72,14.59,8.01,30.76,5.99,47.41Z"/>
  <path class="cls-4" d="M226.85,151.56c12.73-14.34,21.4-32.55,23.89-53.02,2.03-16.65-.27-32.82-5.99-47.41-24.82,27.94-30.97,66.97-17.9,100.43Z"/>
  <path class="cls-24" d="M226.85,151.56c12.73-14.34,21.4-32.55,23.89-53.02,2.03-16.65-.27-32.82-5.99-47.41-24.82,27.94-30.97,66.97-17.9,100.43Z"/>
  <path class="cls-25" d="M337.75,137.21c-15.07,14.08-33.41,22.46-52.38,25.26-.21.61-.43,1.23-.62,1.85,8.05,18.41,21.59,33.75,38.43,44.12,30.69-18.68,70.19-19.4,102.01.19,20.04-12.24,35.24-31.44,42.39-54.08-15.86-36.25-52.96-60.67-94.8-58.44-3.09.17-6.14.49-9.14.93-5,14.85-13.63,28.71-25.89,40.16Z"/>
  <path class="cls-2" d="M285.36,162.47c18.97-2.8,37.31-11.18,52.38-25.26,12.25-11.45,20.89-25.31,25.89-40.16-36.97,5.45-66.77,31.39-78.27,65.43Z"/>
  <path class="cls-17" d="M285.36,162.47c18.97-2.8,37.31-11.18,52.38-25.26,12.25-11.45,20.89-25.31,25.89-40.16-36.97,5.45-66.77,31.39-78.27,65.43Z"/>
  <path class="cls-28" d="M432.79,213.79c-2.48-1.86-5.02-3.57-7.6-5.16-13.37,8.16-28.9,13.23-45.65,14.13-20.6,1.1-40.04-4.27-56.37-14.32-.55.34-1.11.67-1.66,1.01-5.66,19.28-5.16,39.73,1.08,58.5,35.52,5.41,66.24,30.26,78.02,65.72,23.22,3.51,47.21-1.43,67.23-14.18,11.15-37.96-1.57-80.52-35.06-105.7Z"/>
  <path class="cls-3" d="M323.17,208.43c16.33,10.05,35.77,15.42,56.37,14.32,16.75-.89,32.27-5.96,45.65-14.13-31.82-19.59-71.33-18.87-102.01-.19Z"/>
  <path class="cls-16" d="M323.17,208.43c16.33,10.05,35.77,15.42,56.37,14.32,16.75-.89,32.27-5.96,45.65-14.13-31.82-19.59-71.33-18.87-102.01-.19Z"/>
  <path class="cls-20" d="M322.59,267.95c-.64-.1-1.28-.21-1.93-.29-16.73,11.13-29.49,27.12-36.77,45.51,23.73,26.98,31.29,65.76,17.52,100.5,15.53,17.61,37.09,29.25,60.61,32.35,32.95-21.92,50.55-62.69,41.09-103.51-.7-3.02-1.55-5.96-2.51-8.84-15.49-2.34-30.65-8.44-44.05-18.52-16.49-12.4-27.92-29.01-33.97-47.2Z"/>
  <path class="cls-13" d="M283.89,313.16c-7.06,17.83-8.97,37.9-4.31,58,3.79,16.34,11.48,30.75,21.84,42.5,13.77-34.74,6.2-73.52-17.52-100.5Z"/>
  <path class="cls-9" d="M283.89,313.16c-7.06,17.83-8.97,37.9-4.31,58,3.79,16.34,11.48,30.75,21.84,42.5,13.77-34.74,6.2-73.52-17.52-100.5Z"/>
  <path class="cls-10" d="M322.59,267.95c6.05,18.19,17.49,34.8,33.97,47.2,13.4,10.08,28.55,16.18,44.05,18.52-11.78-35.46-42.51-60.31-78.02-65.72Z"/>
  <path class="cls-15" d="M322.59,267.95c6.05,18.19,17.49,34.8,33.97,47.2,13.4,10.08,28.55,16.18,44.05,18.52-11.78-35.46-42.51-60.31-78.02-65.72Z"/>
</svg>